<svg width="569" height="713" viewBox="0 0 569 713" fill="none" xmlns="http://www.w3.org/2000/svg">
<g filter="url(#filter0_i_241_73)">
<path d="M569 0.656982H0V71.782L206.618 226.834C143.912 247.512 91.9816 292.24 62.2402 351.19C32.4988 410.139 27.3801 478.485 48.0094 541.207C58.2155 572.278 74.4473 601.032 95.7763 625.823C117.105 650.615 143.113 670.959 172.311 685.69C201.51 700.422 233.326 709.252 265.94 711.675C298.555 714.099 331.327 710.069 362.382 699.816C412.186 683.446 455.551 651.77 486.294 609.304C517.037 566.839 533.589 515.751 533.589 463.325C533.589 410.899 517.037 359.812 486.294 317.346C455.551 274.88 412.186 243.204 362.382 226.834L569 71.782V0.656982ZM389.054 623.001L284.5 561.833L179.946 623.001L207.685 504.578L115.578 424.918L236.846 414.604L284.5 302.938L332.154 414.604L453.422 424.918L361.315 504.578L389.054 623.001Z" fill="#F0F0F0"/>
</g>
<path d="M0.5 71.5321V1.15698H568.5V71.5321L362.082 226.435L361.315 227.01L362.226 227.309C411.93 243.647 455.208 275.259 485.889 317.639C516.571 360.02 533.089 411.005 533.089 463.325C533.089 515.646 516.571 566.631 485.889 609.011C455.208 651.391 411.93 683.004 362.226 699.341L362.225 699.341C331.232 709.574 298.526 713.596 265.977 711.177C233.429 708.758 201.676 699.945 172.536 685.244C143.397 670.542 117.441 650.239 96.1553 625.497C74.8692 600.755 58.67 572.059 48.4844 541.051L48.0094 541.207L48.4843 541.051C27.8965 478.455 33.0049 410.246 62.6866 351.415C92.3683 292.584 144.195 247.945 206.775 227.309L207.684 227.009L206.918 226.435L0.5 71.5321ZM388.801 623.432L389.806 624.02L389.541 622.887L361.871 504.758L453.749 425.296L454.646 424.52L453.464 424.419L332.496 414.132L284.96 302.742L284.5 301.664L284.04 302.742L236.504 414.132L115.536 424.419L114.354 424.52L115.251 425.296L207.129 504.758L179.459 622.887L179.194 624.02L180.199 623.432L284.5 562.413L388.801 623.432Z" stroke="#222222"/>
<defs>
<filter id="filter0_i_241_73" x="0" y="0.656982" width="569" height="732.037" filterUnits="userSpaceOnUse" color-interpolation-filters="sRGB">
<feFlood flood-opacity="0" result="BackgroundImageFix"/>
<feBlend mode="normal" in="SourceGraphic" in2="BackgroundImageFix" result="shape"/>
<feColorMatrix in="SourceAlpha" type="matrix" values="0 0 0 0 0 0 0 0 0 0 0 0 0 0 0 0 0 0 127 0" result="hardAlpha"/>
<feOffset dy="20.3344"/>
<feGaussianBlur stdDeviation="15.2508"/>
<feComposite in2="hardAlpha" operator="arithmetic" k2="-1" k3="1"/>
<feColorMatrix type="matrix" values="0 0 0 0 0 0 0 0 0 0 0 0 0 0 0 0 0 0 0.25 0"/>
<feBlend mode="normal" in2="shape" result="effect1_innerShadow_241_73"/>
</filter>
</defs>
</svg>
