<svg width="750" height="939" viewBox="0 0 750 939" fill="none" xmlns="http://www.w3.org/2000/svg">
<path d="M750 0.903198H0V94.6532L272.344 299.028C189.691 326.283 121.241 385.239 82.0389 462.941C42.8367 540.642 36.0898 630.73 63.2812 713.403C76.7339 754.358 98.1291 792.258 126.243 824.936C154.357 857.615 188.637 884.429 227.124 903.847C265.61 923.264 307.548 934.903 350.536 938.098C393.525 941.293 436.722 935.981 477.656 922.466C543.304 900.888 600.463 859.136 640.986 803.162C681.508 747.188 703.324 679.849 703.324 610.747C703.324 541.644 681.508 474.306 640.986 418.332C600.463 362.358 543.304 320.605 477.656 299.028L750 94.6532V0.903198ZM512.812 821.216L375 740.591L237.188 821.216L273.75 665.122L152.344 560.122L312.187 546.528L375 399.341L437.813 546.528L597.656 560.122L476.25 665.122L512.812 821.216Z" fill="#FFC633"/>
</svg>
